<?xml version="1.0" encoding="iso-8859-1"?>
<!-- Uploaded to: SVG Repo, www.svgrepo.com, Generator: SVG Repo Mixer Tools -->
<svg version="1.1" id="Layer_1" xmlns="http://www.w3.org/2000/svg" xmlns:xlink="http://www.w3.org/1999/xlink" 
	 viewBox="0 0 512 512" xml:space="preserve">
<path style="fill:#FF7876;" d="M323.393,101.456h-51.007c-9.029,0-16.351,7.303-16.386,16.325v317.514
	c0.035,9.022,7.356,16.325,16.386,16.325h51.007c9.051,0,16.389-7.338,16.389-16.389V117.845
	C339.782,108.794,332.444,101.456,323.393,101.456z"/>
<path style="fill:#FF5E5B;" d="M323.393,101.456h-25.501v350.162h25.501c9.051,0,16.389-7.338,16.389-16.389V117.845
	C339.782,108.794,332.444,101.456,323.393,101.456z"/>
<path style="fill:#80D0E1;" d="M435.442,451.618h-79.272c-9.051,0-16.389-7.338-16.389-16.389V117.845
	c0-9.051,7.338-16.389,16.389-16.389h79.272c9.051,0,16.389,7.338,16.389,16.389v317.383
	C451.831,444.281,444.494,451.618,435.442,451.618z"/>
<g>
	<path style="fill:#51B3DA;" d="M435.442,101.456h-39.636v350.162h39.635c9.051,0,16.389-7.338,16.389-16.389V117.845
		C451.831,108.794,444.494,101.456,435.442,101.456z"/>
	<rect x="339.777" y="192.058" style="fill:#51B3DA;" width="112.046" height="168.96"/>
</g>
<path style="fill:#FFDA79;" d="M239.611,451.618h-46.494c-9.051,0-16.389-7.338-16.389-16.389V76.771
	c0-9.051,7.338-16.389,16.389-16.389h46.494c9.051,0,16.389,7.338,16.389,16.389v358.458
	C256,444.281,248.662,451.618,239.611,451.618z"/>
<path style="fill:#FFD155;" d="M239.611,60.382h-23.247v391.236h23.247c9.051,0,16.389-7.338,16.389-16.389V76.771
	C256,67.719,248.662,60.382,239.611,60.382z"/>
<rect x="176.728" y="216.805" style="fill:#6A82A1;" width="79.268" height="78.405"/>
<path style="fill:#80D0E1;" d="M160.339,451.618h-88.29c-9.051,0-16.389-7.338-16.389-16.389V165.584
	c0-9.051,7.338-16.389,16.389-16.389h88.29c9.051,0,16.389,7.338,16.389,16.389v269.646
	C176.728,444.281,169.391,451.618,160.339,451.618z"/>
<g>
	<path style="fill:#51B3DA;" d="M160.339,149.195h-44.146v302.424h44.146c9.051,0,16.389-7.338,16.389-16.389V165.584
		C176.728,156.533,169.391,149.195,160.339,149.195z"/>
	<rect x="55.66" y="351.151" style="fill:#51B3DA;" width="121.071" height="32.778"/>
</g>
<path style="fill:#6A82A1;" d="M495.611,451.618H16.389C7.338,451.618,0,444.281,0,435.229s7.338-16.389,16.389-16.389h479.222
	c9.051,0,16.389,7.338,16.389,16.389S504.662,451.618,495.611,451.618z"/>
<path style="fill:#36495E;" d="M495.611,418.84H256v32.778h239.611c9.051,0,16.389-7.338,16.389-16.389
	C512,426.177,504.662,418.84,495.611,418.84z"/>
<rect x="116.198" y="351.151" style="fill:#238CC5;" width="60.53" height="32.778"/>
<rect x="216.368" y="216.805" style="fill:#36495E;" width="39.64" height="78.405"/>
<rect x="395.806" y="192.058" style="fill:#238CC5;" width="56.029" height="168.96"/>
</svg>